<svg id='add-square-active' viewBox="0 0 18 18" fill="none" xmlns="http://www.w3.org/2000/svg">
<path d="M11.5 10C12.0523 10 12.5 9.55228 12.5 9C12.5 8.44772 12.0523 8 11.5 8V10ZM6.5 8C5.94772 8 5.5 8.44772 5.5 9C5.5 9.55228 5.94772 10 6.5 10V8ZM10 6.5C10 5.94772 9.55228 5.5 9 5.5C8.44772 5.5 8 5.94772 8 6.5H10ZM8 11.5C8 12.0523 8.44772 12.5 9 12.5C9.55228 12.5 10 12.0523 10 11.5H8ZM13.1667 0.5H4.83333V2.5H13.1667V0.5ZM0.5 4.83333V13.1667H2.5V4.83333H0.5ZM4.83333 17.5H13.1667V15.5H4.83333V17.5ZM17.5 13.1667V4.83333H15.5V13.1667H17.5ZM13.1667 17.5C15.5599 17.5 17.5 15.5599 17.5 13.1667H15.5C15.5 14.4553 14.4553 15.5 13.1667 15.5V17.5ZM0.5 13.1667C0.5 15.5599 2.4401 17.5 4.83333 17.5V15.5C3.54467 15.5 2.5 14.4553 2.5 13.1667H0.5ZM4.83333 0.5C2.4401 0.5 0.5 2.4401 0.5 4.83333H2.5C2.5 3.54467 3.54467 2.5 4.83333 2.5V0.5ZM13.1667 2.5C14.4553 2.5 15.5 3.54467 15.5 4.83333H17.5C17.5 2.4401 15.5599 0.5 13.1667 0.5V2.5ZM11.5 8H9V10H11.5V8ZM9 8H6.5V10H9V8ZM8 6.5V9H10V6.5H8ZM8 9V11.5H10V9H8Z" fill="#8544C5"/>
</svg>
