<svg id='arrow-forward' viewBox="0 0 15 10" fill="none" xmlns="http://www.w3.org/2000/svg">
<path d="M10.2072 0.959554C9.81666 0.56903 9.1835 0.56903 8.79298 0.959555C8.40245 1.35008 8.40245 1.98324 8.79298 2.37377L10.2072 0.959554ZM12.8334 4.99999L13.5405 5.7071L14.2476 4.99999L13.5405 4.29289L12.8334 4.99999ZM8.79298 7.62622C8.40245 8.01675 8.40245 8.64991 8.79298 9.04044C9.1835 9.43096 9.81666 9.43096 10.2072 9.04044L8.79298 7.62622ZM1.16675 3.99999C0.614463 3.99999 0.166748 4.44771 0.166748 4.99999C0.166748 5.55228 0.614463 5.99999 1.16675 5.99999V3.99999ZM8.79298 2.37377L12.1263 5.7071L13.5405 4.29289L10.2072 0.959554L8.79298 2.37377ZM12.1263 4.29289L8.79298 7.62622L10.2072 9.04044L13.5405 5.7071L12.1263 4.29289ZM12.8334 3.99999L1.16675 3.99999V5.99999H12.8334V3.99999Z" fill="white"/>
</svg>
