<svg id='facebook' viewBox="0 0 20 20" fill="none" xmlns="http://www.w3.org/2000/svg">
<path d="M10 20C15.5228 20 20 15.5228 20 10C20 4.47715 15.5228 0 10 0C4.47715 0 0 4.47715 0 10C0 15.5228 4.47715 20 10 20Z" fill="#334C8C"/>
<path d="M12.5339 9.05395L12.3682 10.4461C12.361 10.5107 12.3301 10.5704 12.2815 10.6137C12.2329 10.6569 12.1701 10.6807 12.105 10.6803H10.6576V14.8118C10.658 14.8612 10.6388 14.9086 10.6043 14.9439C10.5698 14.9791 10.5227 14.9993 10.4734 15H8.99842C8.97388 14.9997 8.94965 14.9945 8.92711 14.9848C8.90458 14.9751 8.88417 14.961 8.86706 14.9434C8.84996 14.9258 8.83649 14.905 8.82742 14.8822C8.81835 14.8594 8.81386 14.8351 8.81421 14.8105L8.8221 10.6803H7.72605C7.65625 10.6803 7.58932 10.6525 7.53997 10.6032C7.49062 10.5538 7.46289 10.4869 7.46289 10.4171V9.025C7.46289 8.95521 7.49062 8.88827 7.53997 8.83892C7.58932 8.78957 7.65625 8.76184 7.72605 8.76184H8.81552V7.41184C8.81552 5.85 9.74447 5 11.105 5H12.2195C12.2893 5 12.3562 5.02773 12.4055 5.07708C12.4549 5.12643 12.4826 5.19336 12.4826 5.26316V6.43553C12.4826 6.50532 12.4549 6.57226 12.4055 6.62161C12.3562 6.67096 12.2893 6.69868 12.2195 6.69868H11.5366C10.7971 6.71053 10.6576 7.06447 10.6576 7.59342V8.75789H12.2774C12.3143 8.75853 12.3507 8.76694 12.3842 8.78258C12.4177 8.79822 12.4475 8.82073 12.4717 8.84866C12.4959 8.87659 12.514 8.90931 12.5247 8.94468C12.5354 8.98005 12.5386 9.01728 12.5339 9.05395Z" fill="white"/>
</svg>
