<svg id='hospital-user-active' viewBox="0 0 52 42" fill="none" xmlns="http://www.w3.org/2000/svg">
<g clip-path="url(#clip0_93_8174)">
<path opacity="0.4" d="M26 7.8H23.4V2.6C23.4 1.91044 23.1261 1.24912 22.6385 0.761522C22.1509 0.273928 21.4896 0 20.8 0L7.8 0C7.11044 0 6.44912 0.273928 5.96152 0.761522C5.47393 1.24912 5.2 1.91044 5.2 2.6V7.8H2.6C1.91044 7.8 1.24912 8.07393 0.761522 8.56152C0.273928 9.04912 0 9.71044 0 10.4L0 40.3C0 40.6448 0.136964 40.9754 0.380761 41.2192C0.624558 41.463 0.955219 41.6 1.3 41.6H24.7252C23.8785 40.4993 23.4133 39.1528 23.4 37.7642C23.3876 36.2216 23.6823 34.692 24.2669 33.2644C24.8515 31.8368 25.7144 30.5399 26.8052 29.4491C27.3547 28.9087 27.9558 28.4235 28.6 28.0004V10.4C28.6 9.71044 28.3261 9.04912 27.8385 8.56152C27.3509 8.07393 26.6896 7.8 26 7.8ZM11.7 32.825C11.7 33.0836 11.5973 33.3316 11.4144 33.5144C11.2316 33.6973 10.9836 33.8 10.725 33.8H7.475C7.21641 33.8 6.96842 33.6973 6.78557 33.5144C6.60272 33.3316 6.5 33.0836 6.5 32.825V29.575C6.5 29.3164 6.60272 29.0684 6.78557 28.8856C6.96842 28.7027 7.21641 28.6 7.475 28.6H10.725C10.9836 28.6 11.2316 28.7027 11.4144 28.8856C11.5973 29.0684 11.7 29.3164 11.7 29.575V32.825ZM11.7 22.425C11.7 22.6836 11.5973 22.9316 11.4144 23.1144C11.2316 23.2973 10.9836 23.4 10.725 23.4H7.475C7.21641 23.4 6.96842 23.2973 6.78557 23.1144C6.60272 22.9316 6.5 22.6836 6.5 22.425V19.175C6.5 18.9164 6.60272 18.6684 6.78557 18.4856C6.96842 18.3027 7.21641 18.2 7.475 18.2H10.725C10.9836 18.2 11.2316 18.3027 11.4144 18.4856C11.5973 18.6684 11.7 18.9164 11.7 19.175V22.425ZM22.1 32.825C22.1 33.0836 21.9973 33.3316 21.8144 33.5144C21.6316 33.6973 21.3836 33.8 21.125 33.8H17.875C17.6164 33.8 17.3684 33.6973 17.1856 33.5144C17.0027 33.3316 16.9 33.0836 16.9 32.825V29.575C16.9 29.3164 17.0027 29.0684 17.1856 28.8856C17.3684 28.7027 17.6164 28.6 17.875 28.6H21.125C21.3836 28.6 21.6316 28.7027 21.8144 28.8856C21.9973 29.0684 22.1 29.3164 22.1 29.575V32.825ZM22.1 22.425C22.1 22.6836 21.9973 22.9316 21.8144 23.1144C21.6316 23.2973 21.3836 23.4 21.125 23.4H17.875C17.6164 23.4 17.3684 23.2973 17.1856 23.1144C17.0027 22.9316 16.9 22.6836 16.9 22.425V19.175C16.9 18.9164 17.0027 18.6684 17.1856 18.4856C17.3684 18.3027 17.6164 18.2 17.875 18.2H21.125C21.3836 18.2 21.6316 18.3027 21.8144 18.4856C21.9973 18.6684 22.1 18.9164 22.1 19.175V22.425Z" fill="#8544C5"/>
<path d="M42.9504 28.6H42.9C42.7053 28.5992 42.5118 28.6291 42.3264 28.6886C40.1716 29.4369 37.8275 29.4369 35.6728 28.6886C35.4877 28.6292 35.2944 28.5993 35.1 28.6C32.6865 28.6 30.3719 29.5587 28.6653 31.2653C26.9587 32.9719 26 35.2865 26 37.7V37.7504C26.0114 39.884 27.7656 41.6 29.9 41.6H48.1C50.2344 41.6 51.9886 39.884 52 37.7504C52.0066 36.5553 51.7778 35.3707 51.3266 34.2641C50.8754 33.1575 50.2107 32.1506 49.3703 31.3009C48.53 30.4512 47.5305 29.7754 46.429 29.3119C45.3274 28.8485 44.1454 28.6066 42.9504 28.6ZM39 26C40.5427 26 42.0507 25.5425 43.3334 24.6855C44.6161 23.8284 45.6159 22.6102 46.2063 21.1849C46.7966 19.7597 46.9511 18.1913 46.6501 16.6783C46.3492 15.1652 45.6063 13.7754 44.5154 12.6846C43.4246 11.5937 42.0348 10.8508 40.5217 10.5499C39.0087 10.2489 37.4403 10.4034 36.0151 10.9937C34.5898 11.5841 33.3716 12.5838 32.5145 13.8665C31.6575 15.1493 31.2 16.6573 31.2 18.2C31.2 20.2687 32.0218 22.2526 33.4846 23.7154C34.9473 25.1782 36.9313 26 39 26Z" fill="#8544C5"/>
</g>
<defs>
<clipPath id="clip0_93_8174">
<rect width="52" height="41.6" fill="white"/>
</clipPath>
</defs>
</svg>
