<svg id='linkedin' viewBox="0 0 20 20" fill="none" xmlns="http://www.w3.org/2000/svg">
<path d="M10 20C15.5228 20 20 15.5228 20 10C20 4.47715 15.5228 0 10 0C4.47715 0 0 4.47715 0 10C0 15.5228 4.47715 20 10 20Z" fill="#0B69C7"/>
<path d="M7.76283 6.36447C7.76309 6.63471 7.68318 6.89896 7.5332 7.12376C7.38323 7.34857 7.16993 7.52383 6.92031 7.62736C6.67069 7.7309 6.39597 7.75806 6.13091 7.7054C5.86585 7.65274 5.62237 7.52264 5.43128 7.33155C5.24019 7.14046 5.11009 6.89698 5.05743 6.63192C5.00477 6.36686 5.03193 6.09214 5.13547 5.84252C5.239 5.5929 5.41426 5.3796 5.63907 5.22963C5.86387 5.07965 6.12812 4.99974 6.39836 5C6.76013 5.00035 7.10699 5.14422 7.3628 5.40003C7.61861 5.65584 7.76248 6.0027 7.76283 6.36447Z" fill="white"/>
<path d="M7.1168 8.29868H5.67995C5.4932 8.29868 5.3418 8.45008 5.3418 8.63684V14.6618C5.3418 14.8486 5.4932 15 5.67995 15H7.1168C7.30356 15 7.45496 14.8486 7.45496 14.6618V8.63684C7.45496 8.45008 7.30356 8.29868 7.1168 8.29868Z" fill="white"/>
<path d="M14.9668 11.7724V14.6895C14.9668 14.7718 14.9341 14.8508 14.8758 14.9091C14.8176 14.9673 14.7386 15 14.6563 15H13.1141C13.0318 15 12.9528 14.9673 12.8946 14.9091C12.8363 14.8508 12.8036 14.7718 12.8036 14.6895V11.8632C12.8036 11.4408 12.926 10.0211 11.701 10.0211C10.751 10.0211 10.5576 10.9974 10.5168 11.4355V14.6961C10.5151 14.7768 10.482 14.8537 10.4245 14.9105C10.367 14.9672 10.2897 14.9993 10.2089 15H8.71678C8.67595 15.0002 8.63549 14.9923 8.59774 14.9767C8.55999 14.9612 8.52569 14.9383 8.49682 14.9094C8.46795 14.8806 8.44508 14.8463 8.42954 14.8085C8.41399 14.7708 8.40608 14.7303 8.40625 14.6895V8.61053C8.40608 8.56964 8.41398 8.52912 8.42951 8.49129C8.44504 8.45347 8.46789 8.41908 8.49674 8.39011C8.52559 8.36113 8.55988 8.33814 8.59764 8.32245C8.6354 8.30676 8.67589 8.29869 8.71678 8.29869H10.2089C10.2503 8.29799 10.2914 8.30554 10.3298 8.3209C10.3683 8.33626 10.4033 8.35912 10.4328 8.38814C10.4623 8.41717 10.4858 8.45178 10.5018 8.48997C10.5178 8.52815 10.526 8.56913 10.526 8.61053V9.13685C10.8786 8.61053 11.4023 8.20001 12.5168 8.20001C14.9813 8.19869 14.9668 10.5053 14.9668 11.7724Z" fill="white"/>
</svg>
