<svg id='upload-active' viewBox="0 0 20 20" fill="none" xmlns="http://www.w3.org/2000/svg">
<path d="M10.8614 11.6718C10.8628 12.1321 10.4909 12.5063 10.0306 12.5078C9.5704 12.5092 9.19614 12.1373 9.19469 11.6771L10.8614 11.6718Z" fill="#8544C5"/>
<path d="M8.09824 5.60304L9.17225 4.52227L9.19469 11.6771L10.8614 11.6718L10.8389 4.51704L11.9197 5.59105C12.2461 5.91546 12.7738 5.91383 13.0982 5.58737C13.4226 5.26091 13.421 4.73328 13.0945 4.40887L9.99557 1.32932L6.91604 4.42823L8.09824 5.60304Z" fill="#8544C5"/>
<path d="M6.91604 4.42823C6.59163 4.75468 6.59326 5.28234 6.91972 5.60675C7.24618 5.93116 7.77383 5.92949 8.09824 5.60304L6.91604 4.42823Z" fill="#8544C5"/>
<path d="M3.33268 10C3.33268 9.07953 4.07887 8.33333 4.99935 8.33333C5.45959 8.33333 5.83268 7.96024 5.83268 7.5C5.83268 7.03976 5.45959 6.66667 4.99935 6.66667C3.1584 6.66667 1.66602 8.15905 1.66602 10V15C1.66602 16.841 3.1584 18.3333 4.99935 18.3333H14.166C16.4672 18.3333 18.3327 16.4679 18.3327 14.1667V10C18.3327 8.15905 16.8403 6.66667 14.9993 6.66667C14.5391 6.66667 14.166 7.03976 14.166 7.5C14.166 7.96024 14.5391 8.33333 14.9993 8.33333C15.9198 8.33333 16.666 9.07953 16.666 10V14.1667C16.666 15.5474 15.5467 16.6667 14.166 16.6667H4.99935C4.07887 16.6667 3.33268 15.9205 3.33268 15V10Z" fill="#8544C5"/>
</svg>
