<svg id='user-tie-active' viewBox="0 0 42 48" fill="none" xmlns="http://www.w3.org/2000/svg">
<g clip-path="url(#clip0_93_8169)">
<path opacity="0.4" d="M18.0824 38.7961L19.634 32.2009L16.6519 26.9821H25.5983L22.6162 32.2009L24.1678 38.7961L21.1251 44.875L18.0824 38.7961ZM21.1251 24C23.4844 24 25.7906 23.3004 27.7523 21.9897C29.7139 20.6789 31.2428 18.8159 32.1457 16.6363C33.0485 14.4566 33.2847 12.0582 32.8245 9.74427C32.3642 7.43035 31.2281 5.30488 29.5599 3.63664C27.8916 1.9684 25.7662 0.832314 23.4523 0.372047C21.1383 -0.0882195 18.7399 0.148006 16.5602 1.05085C14.3806 1.9537 12.5176 3.48261 11.2069 5.44426C9.89613 7.4059 9.19653 9.71217 9.19653 12.0714C9.19653 15.2351 10.4533 18.2691 12.6903 20.5062C14.9274 22.7432 17.9615 24 21.1251 24Z" fill="#8544C5"/>
<path d="M30.0528 27.0381L21.125 44.875L12.1972 27.0381C5.55262 27.3549 0.25 32.788 0.25 39.5071V43.3839C0.25 44.5703 0.721284 45.7081 1.56017 46.547C2.39906 47.3859 3.53684 47.8571 4.72321 47.8571H37.5268C38.7132 47.8571 39.8509 47.3859 40.6898 46.547C41.5287 45.7081 42 44.5703 42 43.3839V39.5071C42 32.788 36.6974 27.3549 30.0528 27.0381Z" fill="#8544C5"/>
</g>
<defs>
<clipPath id="clip0_93_8169">
<rect width="41.75" height="47.7143" fill="white" transform="translate(0.25 0.142853)"/>
</clipPath>
</defs>
</svg>
